<?xml version="1.0" encoding="UTF-8" ?>
<svg width="499pt" height="234pt" viewBox="0.00 0.00 499.32 233.80" xmlns="http://www.w3.org/2000/svg" xmlns:xlink="http://www.w3.org/1999/xlink">
<g id="graph0" class="graph" transform="scale(1 1) rotate(0) translate(4 229.8)">
<title>app</title>
<polygon fill="#eeeeee" stroke="transparent" points="-4,4 -4,-229.8 495.3234,-229.8 495.3234,4 -4,4"/>
<text text-anchor="middle" x="245.6617" y="-8.2" font-family="Times,serif" font-size="14.00" fill="#000000">Sample WebApp Diagram</text>
<g id="clust1" class="cluster">
<title>cluster_1</title>
<polygon fill="#1faff0" stroke="#000000" points="8,-32.8 8,-217.8 87.4236,-217.8 87.4236,-32.8 8,-32.8"/>
<text text-anchor="middle" x="47.7118" y="-201.2" font-family="Times,serif" font-size="14.00" fill="#000000">Client</text>
</g>
<g id="clust2" class="cluster">
<title>cluster_2</title>
<polygon fill="#1faff0" stroke="#000000" points="331.437,-32.8 331.437,-217.8 401.437,-217.8 401.437,-32.8 331.437,-32.8"/>
<text text-anchor="middle" x="366.437" y="-201.2" font-family="Times,serif" font-size="14.00" fill="#000000">Server</text>
</g>
<!-- WebServer -->
<g id="node1" class="node">
<title>WebServer</title>
<polygon fill="#000080" stroke="#000000" points="303.437,-76.8 253.437,-76.8 249.437,-72.8 249.437,-40.8 299.437,-40.8 303.437,-44.8 303.437,-76.8"/>
<polyline fill="none" stroke="#000000" points="299.437,-72.8 249.437,-72.8 "/>
<polyline fill="none" stroke="#000000" points="299.437,-72.8 299.437,-40.8 "/>
<polyline fill="none" stroke="#000000" points="299.437,-72.8 303.437,-76.8 "/>
<text text-anchor="middle" x="276.437" y="-55.5" font-family="Times,serif" font-size="11.00" fill="#ffffff">NGINX</text>
</g>
<!-- API -->
<g id="node7" class="node">
<title>API</title>
<polygon fill="none" stroke="#000000" points="393.437,-76.8 343.437,-76.8 339.437,-72.8 339.437,-40.8 389.437,-40.8 393.437,-44.8 393.437,-76.8"/>
<polyline fill="none" stroke="#000000" points="389.437,-72.8 339.437,-72.8 "/>
<polyline fill="none" stroke="#000000" points="389.437,-72.8 389.437,-40.8 "/>
<polyline fill="none" stroke="#000000" points="389.437,-72.8 393.437,-76.8 "/>
<text text-anchor="middle" x="366.437" y="-54.6" font-family="Times,serif" font-size="14.00" fill="#000000">API</text>
</g>
<!-- WebServer&#45;&gt;API -->
<g id="edge6" class="edge">
<title>WebServer-&gt;API</title>
<path fill="none" stroke="#000000" d="M303.44,-58.8C303.44,-58.8 329.142,-58.8 329.142,-58.8"/>
<polygon fill="#000000" stroke="#000000" points="329.1421,-62.3001 339.142,-58.8 329.142,-55.3001 329.1421,-62.3001"/>
</g>
<!-- ELB -->
<g id="node2" class="node">
<title>ELB</title>
<polygon fill="#391463" stroke="#000000" points="213.4437,-76.8 119.4169,-76.8 115.4169,-72.8 115.4169,-40.8 209.4437,-40.8 213.4437,-44.8 213.4437,-76.8"/>
<polyline fill="none" stroke="#000000" points="209.4437,-72.8 115.4169,-72.8 "/>
<polyline fill="none" stroke="#000000" points="209.4437,-72.8 209.4437,-40.8 "/>
<polyline fill="none" stroke="#000000" points="209.4437,-72.8 213.4437,-76.8 "/>
<text text-anchor="middle" x="164.4303" y="-54.6" font-family="Times,serif" font-size="14.00" fill="#ffffff">Load Balancer</text>
</g>
<!-- ELB&#45;&gt;WebServer -->
<g id="edge5" class="edge">
<title>ELB-&gt;WebServer</title>
<path fill="none" stroke="#000000" d="M213.5581,-58.8C213.5581,-58.8 239.1892,-58.8 239.1892,-58.8"/>
<polygon fill="#000000" stroke="#000000" points="239.1893,-62.3001 249.1892,-58.8 239.1892,-55.3001 239.1893,-62.3001"/>
</g>
<!-- DB -->
<g id="node3" class="node">
<title>DB</title>
<path fill="#6495ed" stroke="#000000" d="M491.2667,-73.5273C491.2667,-75.3331 477.4229,-76.8 460.3802,-76.8 443.3375,-76.8 429.4937,-75.3331 429.4937,-73.5273 429.4937,-73.5273 429.4937,-44.0727 429.4937,-44.0727 429.4937,-42.2669 443.3375,-40.8 460.3802,-40.8 477.4229,-40.8 491.2667,-42.2669 491.2667,-44.0727 491.2667,-44.0727 491.2667,-73.5273 491.2667,-73.5273"/>
<path fill="none" stroke="#000000" d="M491.2667,-73.5273C491.2667,-71.7214 477.4229,-70.2545 460.3802,-70.2545 443.3375,-70.2545 429.4937,-71.7214 429.4937,-73.5273"/>
<text text-anchor="middle" x="460.3802" y="-54.6" font-family="Times,serif" font-size="14.00" fill="#000000">MySQL</text>
</g>
<!-- Mobile -->
<g id="node4" class="node">
<title>Mobile</title>
<g id="a_node4"><a xlink:href="https://www.google.com" xlink:title="Mobile" target="_graphviz">
<polygon fill="none" stroke="#000000" points="76.1539,-184.8 23.2697,-184.8 19.2697,-180.8 19.2697,-148.8 72.1539,-148.8 76.1539,-152.8 76.1539,-184.8"/>
<polyline fill="none" stroke="#000000" points="72.1539,-180.8 19.2697,-180.8 "/>
<polyline fill="none" stroke="#000000" points="72.1539,-180.8 72.1539,-148.8 "/>
<polyline fill="none" stroke="#000000" points="72.1539,-180.8 76.1539,-184.8 "/>
<text text-anchor="middle" x="47.7118" y="-162.6" font-family="Times,serif" font-size="14.00" fill="#000000">Mobile</text>
</a>
</g>
</g>
<!-- Mobile&#45;&gt;ELB -->
<g id="edge4" class="edge">
<title>Mobile-&gt;ELB</title>
<path fill="none" stroke="#000000" d="M76.1823,-166.8C110.9898,-166.8 165.3234,-166.8 165.3234,-166.8 165.3234,-166.8 165.3234,-87.1207 165.3234,-87.1207"/>
<polygon fill="#000000" stroke="#000000" points="168.8235,-87.1207 165.3234,-77.1207 161.8235,-87.1208 168.8235,-87.1207"/>
</g>
<!-- Browser -->
<g id="node5" class="node">
<title>Browser</title>
<polygon fill="none" stroke="#000000" points="79.6368,-76.8 19.7868,-76.8 15.7868,-72.8 15.7868,-40.8 75.6368,-40.8 79.6368,-44.8 79.6368,-76.8"/>
<polyline fill="none" stroke="#000000" points="75.6368,-72.8 15.7868,-72.8 "/>
<polyline fill="none" stroke="#000000" points="75.6368,-72.8 75.6368,-40.8 "/>
<polyline fill="none" stroke="#000000" points="75.6368,-72.8 79.6368,-76.8 "/>
<text text-anchor="middle" x="47.7118" y="-54.6" font-family="Times,serif" font-size="14.00" fill="#000000">Browser</text>
</g>
<!-- Browser&#45;&gt;ELB -->
<g id="edge3" class="edge">
<title>Browser-&gt;ELB</title>
<path fill="none" stroke="#000000" d="M79.6056,-58.8C79.6056,-58.8 105.0369,-58.8 105.0369,-58.8"/>
<polygon fill="#000000" stroke="#000000" points="105.0369,-62.3001 115.0369,-58.8 105.0369,-55.3001 105.0369,-62.3001"/>
</g>
<!-- Cache -->
<g id="node6" class="node">
<title>Cache</title>
<polygon fill="none" stroke="#000000" points="393.437,-184.8 343.437,-184.8 339.437,-180.8 339.437,-148.8 389.437,-148.8 393.437,-152.8 393.437,-184.8"/>
<polyline fill="none" stroke="#000000" points="389.437,-180.8 339.437,-180.8 "/>
<polyline fill="none" stroke="#000000" points="389.437,-180.8 389.437,-148.8 "/>
<polyline fill="none" stroke="#000000" points="389.437,-180.8 393.437,-184.8 "/>
<text text-anchor="middle" x="366.437" y="-162.6" font-family="Times,serif" font-size="14.00" fill="#000000">Cache</text>
</g>
<!-- Cache&#45;&gt;API -->
<g id="edge1" class="edge">
<title>Cache-&gt;API</title>
<path fill="none" stroke="#a020f0" d="M358.3234,-148.4793C358.3234,-148.4793 358.3234,-86.8502 358.3234,-86.8502"/>
<polygon fill="#a020f0" stroke="#a020f0" points="361.8235,-86.8501 358.3234,-76.8502 354.8235,-86.8502 361.8235,-86.8501"/>
</g>
<!-- API&#45;&gt;DB -->
<g id="edge7" class="edge">
<title>API-&gt;DB</title>
<path fill="none" stroke="#000000" d="M393.6093,-58.8C393.6093,-58.8 419.3003,-58.8 419.3003,-58.8"/>
<polygon fill="#000000" stroke="#000000" points="419.3003,-62.3001 429.3003,-58.8 419.3002,-55.3001 419.3003,-62.3001"/>
</g>
<!-- API&#45;&gt;Cache -->
<g id="edge2" class="edge">
<title>API-&gt;Cache</title>
<path fill="none" stroke="#000000" d="M376.3234,-77.1207C376.3234,-77.1207 376.3234,-138.7498 376.3234,-138.7498"/>
<polygon fill="#000000" stroke="#000000" points="372.8235,-138.7498 376.3234,-148.7498 379.8235,-138.7499 372.8235,-138.7498"/>
</g>
</g>
</svg>